# Rhino

mtllib core.mtl
usemtl Default
v 16 0 -20
v 16 0 -14
v 16 45 -20
v 16 45 -14
v 16 0 -14
v 68 0 -14
v 16 45 -14
v 68 45 -14
v 68 0 -14
v 68 0 -20
v 68 45 -14
v 68 45 -20
v 68 0 -20
v 16 0 -20
v 68 45 -20
v 16 45 -20
v 16 45 -14
v 16 45 -20
v 68 45 -14
v 68 45 -20
v 16 0 -20
v 16 0 -14
v 68 0 -20
v 68 0 -14
vt 0.13186849653720856 0
vt 0.066666670143604279 0
vt 0.13186849653720856 0.5
vt 0.066666670143604279 0.5
vt 0.84297960996627808 0.5
vt 0.26666668057441711 0.5
vt 0.84297960996627808 0.99853515625
vt 0.26666668057441711 0.99853515625
vt 0.065201826393604279 0
vt 0 0
vt 0.065201826393604279 0.5
vt 0 0.5
vt 0.84297960996627808 0
vt 0.26666668057441711 0
vt 0.84297960996627808 0.49853515625
vt 0.26666668057441711 0.49853515625
vt 0.26520183682441711 0
vt 0.20000000298023224 0
vt 0.26520183682441711 0.57777780294418335
vt 0.20000000298023224 0.57777780294418335
vt 0.19853515923023224 0
vt 0.13333334028720856 0
vt 0.19853515923023224 0.57777780294418335
vt 0.13333334028720856 0.57777780294418335
vn -1 0 0
vn -1 0 0
vn -1 0 0
vn -1 0 0
vn 0 0 1
vn 0 0 1
vn 0 0 1
vn 0 0 1
vn 1 0 0
vn 1 0 0
vn 1 0 0
vn 1 0 0
vn 0 0 -1
vn 0 0 -1
vn 0 0 -1
vn 0 0 -1
vn 0 1 0
vn 0 1 0
vn 0 1 0
vn 0 1 0
vn 0 -1 0
vn 0 -1 0
vn 0 -1 0
vn 0 -1 0
f 2/2/2 4/4/4 3/3/3 1/1/1
f 6/6/6 8/8/8 7/7/7 5/5/5
f 10/10/10 12/12/12 11/11/11 9/9/9
f 14/14/14 16/16/16 15/15/15 13/13/13
f 18/18/18 17/17/17 19/19/19 20/20/20
f 22/22/22 21/21/21 23/23/23 24/24/24
usemtl Default
v 10 0 -130
v 10 0 -110
v 10 75 -130
v 10 75 -110
v 10 0 -110
v 30 0 -110
v 10 75 -110
v 30 75 -110
v 30 0 -110
v 30 0 -130
v 30 75 -110
v 30 75 -130
v 30 0 -130
v 10 0 -130
v 30 75 -130
v 10 75 -130
v 10 75 -110
v 10 75 -130
v 30 75 -110
v 30 75 -130
v 10 0 -130
v 10 0 -110
v 30 0 -130
v 30 0 -110
vt 0.41958779096603394 0.21052631735801697
vt 0.21052631735801697 0.21052631735801697
vt 0.41958779096603394 0.99853515625
vt 0.21052631735801697 0.99853515625
vt 0.20906147360801697 0.21052631735801697
vt 0 0.21052631735801697
vt 0.20906147360801697 0.99853515625
vt 0 0.99853515625
vt 0.84064042568206787 0
vt 0.63157892227172852 0
vt 0.84064042568206787 0.78947371244430542
vt 0.63157892227172852 0.78947371244430542
vt 0.63011407852172852 0
vt 0.42105263471603394 0
vt 0.63011407852172852 0.78947371244430542
vt 0.42105263471603394 0.78947371244430542
vt 0.21052631735801697 0
vt 0.21052631735801697 0.20906147360801697
vt 0.41958779096603394 0
vt 0.41958779096603394 0.20906147360801697
vt 0 0
vt 0 0.20906147360801697
vt 0.20906147360801697 0
vt 0.20906147360801697 0.20906147360801697
vn -1 0 0
vn -1 0 0
vn -1 0 0
vn -1 0 0
vn 0 0 1
vn 0 0 1
vn 0 0 1
vn 0 0 1
vn 1 0 0
vn 1 0 0
vn 1 0 0
vn 1 0 0
vn 0 0 -1
vn 0 0 -1
vn 0 0 -1
vn 0 0 -1
vn 0 1 0
vn 0 1 0
vn 0 1 0
vn 0 1 0
vn 0 -1 0
vn 0 -1 0
vn 0 -1 0
vn 0 -1 0
f 26/26/26 28/28/28 27/27/27 25/25/25
f 30/30/30 32/32/32 31/31/31 29/29/29
f 34/34/34 36/36/36 35/35/35 33/33/33
f 38/38/38 40/40/40 39/39/39 37/37/37
f 42/42/42 41/41/41 43/43/43 44/44/44
f 46/46/46 45/45/45 47/47/47 48/48/48
usemtl Default
v 17 0 -110
v 17 0 -40
v 17 75 -110
v 17 75 -40
v 17 0 -40
v 23 0 -40
v 17 75 -40
v 23 75 -40
v 23 0 -40
v 23 0 -110
v 23 75 -40
v 23 75 -110
v 23 0 -110
v 17 0 -110
v 23 75 -110
v 17 75 -110
v 17 75 -40
v 17 75 -110
v 23 75 -40
v 23 75 -110
v 17 0 -110
v 17 0 -40
v 23 0 -110
v 23 0 -40
vt 0.17142857611179352 0.5
vt 0.17142857611179352 0.99853515625
vt 0.70567798614501953 0.5
vt 0.70567798614501953 0.99853515625
vt 0.16996373236179352 0
vt 0.12857143580913544 0
vt 0.16996373236179352 0.53571426868438721
vt 0.12857143580913544 0.53571426868438721
vt 0.17142857611179352 0
vt 0.17142857611179352 0.49853515625
vt 0.70567798614501953 0
vt 0.70567798614501953 0.49853515625
vt 0.12710659205913544 0
vt 0.085714288055896759 0
vt 0.12710659205913544 0.53571426868438721
vt 0.085714288055896759 0.53571426868438721
vt 0.04285714402794838 0
vt 0.04285714402794838 0.5
vt 0.084249444305896759 0
vt 0.084249444305896759 0.5
vt 0 0
vt 0 0.5
vt 0.04139230027794838 0
vt 0.04139230027794838 0.5
vn -1 0 0
vn -1 0 0
vn -1 0 0
vn -1 0 0
vn 0 0 1
vn 0 0 1
vn 0 0 1
vn 0 0 1
vn 1 0 0
vn 1 0 0
vn 1 0 0
vn 1 0 0
vn 0 0 -1
vn 0 0 -1
vn 0 0 -1
vn 0 0 -1
vn 0 1 0
vn 0 1 0
vn 0 1 0
vn 0 1 0
vn 0 -1 0
vn 0 -1 0
vn 0 -1 0
vn 0 -1 0
f 50/50/50 52/52/52 51/51/51 49/49/49
f 54/54/54 56/56/56 55/55/55 53/53/53
f 58/58/58 60/60/60 59/59/59 57/57/57
f 62/62/62 64/64/64 63/63/63 61/61/61
f 66/66/66 65/65/65 67/67/67 68/68/68
f 70/70/70 69/69/69 71/71/71 72/72/72
usemtl Default
v 10 0 -40
v 10 0 -20
v 10 75 -40
v 10 75 -20
v 10 0 -20
v 30 0 -20
v 10 75 -20
v 30 75 -20
v 30 0 -20
v 30 0 -40
v 30 75 -20
v 30 75 -40
v 30 0 -40
v 10 0 -40
v 30 75 -40
v 10 75 -40
v 10 75 -20
v 10 75 -40
v 30 75 -20
v 30 75 -40
v 10 0 -40
v 10 0 -20
v 30 0 -40
v 30 0 -20
vt 0.41958779096603394 0.21052631735801697
vt 0.21052631735801697 0.21052631735801697
vt 0.41958779096603394 0.99853515625
vt 0.21052631735801697 0.99853515625
vt 0.20906147360801697 0.21052631735801697
vt 0 0.21052631735801697
vt 0.20906147360801697 0.99853515625
vt 0 0.99853515625
vt 0.84064042568206787 0
vt 0.63157892227172852 0
vt 0.84064042568206787 0.78947371244430542
vt 0.63157892227172852 0.78947371244430542
vt 0.63011407852172852 0
vt 0.42105263471603394 0
vt 0.63011407852172852 0.78947371244430542
vt 0.42105263471603394 0.78947371244430542
vt 0.21052631735801697 0
vt 0.21052631735801697 0.20906147360801697
vt 0.41958779096603394 0
vt 0.41958779096603394 0.20906147360801697
vt 0 0
vt 0 0.20906147360801697
vt 0.20906147360801697 0
vt 0.20906147360801697 0.20906147360801697
vn -1 0 0
vn -1 0 0
vn -1 0 0
vn -1 0 0
vn 0 0 1
vn 0 0 1
vn 0 0 1
vn 0 0 1
vn 1 0 0
vn 1 0 0
vn 1 0 0
vn 1 0 0
vn 0 0 -1
vn 0 0 -1
vn 0 0 -1
vn 0 0 -1
vn 0 1 0
vn 0 1 0
vn 0 1 0
vn 0 1 0
vn 0 -1 0
vn 0 -1 0
vn 0 -1 0
vn 0 -1 0
f 74/74/74 76/76/76 75/75/75 73/73/73
f 78/78/78 80/80/80 79/79/79 77/77/77
f 82/82/82 84/84/84 83/83/83 81/81/81
f 86/86/86 88/88/88 87/87/87 85/85/85
f 90/90/90 89/89/89 91/91/91 92/92/92
f 94/94/94 93/93/93 95/95/95 96/96/96
usemtl Default
v 16 0 -136
v 16 0 -130
v 16 60 -136
v 16 60 -130
v 16 0 -130
v 84 0 -130
v 16 60 -130
v 84 60 -130
v 84 0 -130
v 84 0 -136
v 84 60 -130
v 84 60 -136
v 84 0 -136
v 16 0 -136
v 84 60 -136
v 16 60 -136
v 16 60 -130
v 16 60 -136
v 84 60 -130
v 84 60 -136
v 16 0 -136
v 16 0 -130
v 84 0 -136
v 84 0 -130
vt 0.098535157740116119 0
vt 0.05000000074505806 0
vt 0.098535157740116119 0.5
vt 0.05000000074505806 0.5
vt 0.76520180702209473 0.5
vt 0.20000000298023224 0.5
vt 0.76520180702209473 0.99853515625
vt 0.20000000298023224 0.99853515625
vt 0.04853515699505806 0
vt 0 0
vt 0.04853515699505806 0.5
vt 0 0.5
vt 0.76520180702209473 0
vt 0.20000000298023224 0
vt 0.76520180702209473 0.49853515625
vt 0.20000000298023224 0.49853515625
vt 0.19853515923023224 0
vt 0.15000000596046448 0
vt 0.19853515923023224 0.56666666269302368
vt 0.15000000596046448 0.56666666269302368
vt 0.14853516221046448 0
vt 0.10000000149011612 0
vt 0.14853516221046448 0.56666666269302368
vt 0.10000000149011612 0.56666666269302368
vn -1 0 0
vn -1 0 0
vn -1 0 0
vn -1 0 0
vn 0 0 1
vn 0 0 1
vn 0 0 1
vn 0 0 1
vn 1 0 0
vn 1 0 0
vn 1 0 0
vn 1 0 0
vn 0 0 -1
vn 0 0 -1
vn 0 0 -1
vn 0 0 -1
vn 0 1 0
vn 0 1 0
vn 0 1 0
vn 0 1 0
vn 0 -1 0
vn 0 -1 0
vn 0 -1 0
vn 0 -1 0
f 98/98/98 100/100/100 99/99/99 97/97/97
f 102/102/102 104/104/104 103/103/103 101/101/101
f 106/106/106 108/108/108 107/107/107 105/105/105
f 110/110/110 112/112/112 111/111/111 109/109/109
f 114/114/114 113/113/113 115/115/115 116/116/116
f 118/118/118 117/117/117 119/119/119 120/120/120
usemtl Default
v 69 0 -130
v 69 0 -110
v 69 60 -130
v 69 60 -110
v 69 0 -110
v 89 0 -110
v 69 60 -110
v 89 60 -110
v 89 0 -110
v 89 0 -130
v 89 60 -110
v 89 60 -130
v 89 0 -130
v 69 0 -130
v 89 60 -130
v 69 60 -130
v 69 60 -110
v 69 60 -130
v 89 60 -110
v 89 60 -130
v 69 0 -130
v 69 0 -110
v 89 0 -130
v 89 0 -110
vt 0.49853515625 0.25
vt 0.25 0.25
vt 0.49853515625 0.99853515625
vt 0.25 0.99853515625
vt 0.24853515625 0.25
vt 0 0.25
vt 0.24853515625 0.99853515625
vt 0 0.99853515625
vt 0.99853515625 0
vt 0.75 0
vt 0.99853515625 0.75
vt 0.75 0.75
vt 0.74853515625 0
vt 0.5 0
vt 0.74853515625 0.75
vt 0.5 0.75
vt 0.25 0
vt 0.25 0.24853515625
vt 0.49853515625 0
vt 0.49853515625 0.24853515625
vt 0 0
vt 0 0.24853515625
vt 0.24853515625 0
vt 0.24853515625 0.24853515625
vn -1 0 0
vn -1 0 0
vn -1 0 0
vn -1 0 0
vn 0 0 1
vn 0 0 1
vn 0 0 1
vn 0 0 1
vn 1 0 0
vn 1 0 0
vn 1 0 0
vn 1 0 0
vn 0 0 -1
vn 0 0 -1
vn 0 0 -1
vn 0 0 -1
vn 0 1 0
vn 0 1 0
vn 0 1 0
vn 0 1 0
vn 0 -1 0
vn 0 -1 0
vn 0 -1 0
vn 0 -1 0
f 122/122/122 124/124/124 123/123/123 121/121/121
f 126/126/126 128/128/128 127/127/127 125/125/125
f 130/130/130 132/132/132 131/131/131 129/129/129
f 134/134/134 136/136/136 135/135/135 133/133/133
f 138/138/138 137/137/137 139/139/139 140/140/140
f 142/142/142 141/141/141 143/143/143 144/144/144
